<svg xmlns="http://www.w3.org/2000/svg" width="20" height="22" viewBox="0 0 20 22">
  <g id="Group_57" data-name="Group 57" transform="translate(-38 -17)">
    <path id="Path_1581" data-name="Path 1581" d="M455.842,5111.7H442.158L439,5115v-18.7a3.244,3.244,0,0,1,3.158-3.3h13.684a3.244,3.244,0,0,1,3.158,3.3v12.1A3.238,3.238,0,0,1,455.842,5111.7Z" transform="translate(-401 -5076)" fill="#fff"/>
    <path id="Path_1582" data-name="Path 1582" d="M447.925,5100.77h2.15v5.92h-2.15Z" transform="translate(-401 -5076)" fill="#001d41"/>
    <path id="Path_1583" data-name="Path 1583" d="M449,5099.16a1.075,1.075,0,1,0-1.075-1.07A1.073,1.073,0,0,0,449,5099.16Z" transform="translate(-401 -5076)" fill="#001d41"/>
  </g>
</svg>
