<svg xmlns="http://www.w3.org/2000/svg" xmlns:xlink="http://www.w3.org/1999/xlink" width="42" height="40" viewBox="0 0 42 40">
  <defs>
    <clipPath id="clip-path">
      <rect id="Rectangle_13" data-name="Rectangle 13" width="42" height="40" transform="translate(938.675 35)" fill="#fff"/>
    </clipPath>
  </defs>
  <g id="Group_9" data-name="Group 9" transform="translate(-938.675 -35)" clip-path="url(#clip-path)">
    <path id="Path_43" data-name="Path 43" d="M952.545,62.5a1.263,1.263,0,0,0-.46.085,6.854,6.854,0,0,1-5.332,0,1.263,1.263,0,0,0-.46-.085c-4.041,0-7.314,3.944-7.293,8.8a3.463,3.463,0,0,0,3.126,3.7h14.586a3.462,3.462,0,0,0,3.126-3.7C959.86,66.444,956.586,62.5,952.545,62.5ZM949.419,60c3.452,0,6.251-3.358,6.251-7.5s-2.8-7.5-6.251-7.5-6.251,3.358-6.251,7.5S945.967,60,949.419,60ZM977.55,35H952.545c-1.724,0-3.126,1.738-3.126,3.874V42.5a7.243,7.243,0,0,1,4.167,1.391V40h22.922V62.5H972.34v-5h-8.335v5h-4.964a10.41,10.41,0,0,1,2.584,5H977.55c1.724,0,3.126-1.738,3.126-3.874V38.874C980.675,36.738,979.273,35,977.55,35Z" transform="translate(0)" fill="#fff"/>
  </g>
</svg>
