<svg xmlns="http://www.w3.org/2000/svg" width="146.597" height="135.999" viewBox="0 0 146.597 135.999">
  <g id="Group_38" data-name="Group 38" transform="translate(3 -36)">
    <path id="Path_1535" data-name="Path 1535" d="M945.644,2539.5a4.581,4.581,0,0,0-1.617.28,24.861,24.861,0,0,1-18.757,0,4.565,4.565,0,0,0-1.615-.28c-14.215,0-25.73,13.4-25.654,29.906.033,6.982,4.977,12.59,10.995,12.59H960.3c6.017,0,10.963-5.608,10.995-12.59C971.374,2552.906,959.859,2539.5,945.644,2539.5Zm-10.995-8.51c12.145,0,21.99-11.413,21.99-25.49s-9.844-25.5-21.99-25.5-21.99,11.412-21.99,25.5S922.505,2530.992,934.649,2530.992ZM1033.6,2446H945.644c-6.063,0-10.995,5.916-10.995,13.165V2471.5a26.037,26.037,0,0,1,14.66,4.725v-13.235h80.628V2539.5h-14.66V2522.5H985.958V2539.5H968.494a35.012,35.012,0,0,1,9.091,16.993H1033.6c6.061,0,10.995-5.9,10.995-13.166v-84.165C1044.6,2451.916,1039.663,2446,1033.6,2446Z" transform="translate(-901 -2410)" fill="#459fe4"/>
  </g>
</svg>
