<svg id="Group_39" data-name="Group 39" xmlns="http://www.w3.org/2000/svg" width="130.448" height="117.788" viewBox="0 0 130.448 117.788">
  <path id="Path_1536" data-name="Path 1536" d="M1538.632,2548.182c-7.187,0-16.852-4.6-21.744-12.127-23.5,0-24.209,39.907-24.209,39.907h91.474c.013,0,1.839-40.083-24.561-40.083C1554.7,2543.507,1545.845,2548.182,1538.632,2548.182Z" transform="translate(-1492.68 -2458.174)" fill="#459fe4" fill-rule="evenodd"/>
  <path id="Path_1537" data-name="Path 1537" d="M1558.515,2510.515c0,11.08-10.462,32.272-23.392,32.272s-23.392-21.192-23.392-32.272,10.462-20.045,23.392-20.045S1558.515,2499.45,1558.515,2510.515Z" transform="translate(-1489.771 -2462.06)" fill="#459fe4" fill-rule="evenodd"/>
  <path id="Path_1538" data-name="Path 1538" d="M1581.475,2465.08c-17.028,0-30.845,10.328-30.845,23.088,0,11.635,11.523,21.226,26.48,22.825l-8.785,16.152,24.562-17.556c11.385-3.392,19.447-11.7,19.447-21.421C1612.32,2475.408,1598.517,2465.08,1581.475,2465.08Z" transform="translate(-1481.886 -2465.08)" fill="#459fe4" fill-rule="evenodd"/>
</svg>
