<svg id="Group_24" data-name="Group 24" xmlns="http://www.w3.org/2000/svg" width="111.788" height="125.513" viewBox="0 0 111.788 125.513">
  <path id="Path_1534" data-name="Path 1534" d="M413.368,2448H332.632c-7.49,0-18.632,5.01-18.632,18.827v87.859c0,13.818,11.142,18.827,18.632,18.827h93.156v-12.551H332.705c-2.868-.077-6.285-1.222-6.285-6.276a9.572,9.572,0,0,1,.15-1.718c.7-3.6,3.621-4.492,6.13-4.558h86.878a3.011,3.011,0,0,0,.3-.066h5.906v-87.793A12.5,12.5,0,0,0,413.368,2448Zm0,87.859H326.42v-69.032c0-5.054,3.417-6.2,6.211-6.276H376.1v43.93l12.421-6.276,12.42,6.276v-43.93h12.422Z" transform="translate(-314 -2448)" fill="#459fe4"/>
</svg>
