<svg xmlns="http://www.w3.org/2000/svg" width="44" height="42" viewBox="0 0 44 42">
  <path id="Path_36" data-name="Path 36" d="M354.42,32.005c-4.186.292-12.506,1.353-17.643,5.211a1.543,1.543,0,0,0-.555,1.235V72.564c0,1.083.965,1.767,1.778,1.265,5.285-3.264,12.928-4.155,16.707-4.4A2.715,2.715,0,0,0,357,66.555V34.883A2.65,2.65,0,0,0,354.42,32.005Zm-21.2,5.211c-5.136-3.859-13.456-4.919-17.643-5.211A2.651,2.651,0,0,0,313,34.883V66.557a2.714,2.714,0,0,0,2.293,2.874c3.781.244,11.427,1.135,16.712,4.4.811.5,1.773-.182,1.773-1.262V38.434A1.506,1.506,0,0,0,333.223,37.217Z" transform="translate(-313 -32)" fill="#fff"/>
</svg>
