<svg xmlns="http://www.w3.org/2000/svg" xmlns:xlink="http://www.w3.org/1999/xlink" width="1176" height="150" viewBox="0 0 1176 150">
  <defs>
    <linearGradient id="linear-gradient" x1="1" y1="0.5" x2="0" y2="0.5" gradientUnits="objectBoundingBox">
      <stop offset="0" stop-color="#0ad3db"/>
      <stop offset="1" stop-color="#17a6ab"/>
    </linearGradient>
    <filter id="Rectangle_412" x="0" y="0" width="1176" height="150" filterUnits="userSpaceOnUse">
      <feOffset dy="3" input="SourceAlpha"/>
      <feGaussianBlur stdDeviation="3" result="blur"/>
      <feFlood flood-opacity="0.322"/>
      <feComposite operator="in" in2="blur"/>
      <feComposite in="SourceGraphic"/>
    </filter>
    <linearGradient id="linear-gradient-2" x1="0.5" x2="0.5" y2="1.145" gradientUnits="objectBoundingBox">
      <stop offset="0" stop-color="#ffffae"/>
      <stop offset="1" stop-color="#0bced6"/>
    </linearGradient>
    <filter id="Path_1148" x="18.422" y="8.278" width="46.829" height="46.851" filterUnits="userSpaceOnUse">
      <feOffset dy="3" input="SourceAlpha"/>
      <feGaussianBlur stdDeviation="3" result="blur-2"/>
      <feFlood flood-opacity="0.369"/>
      <feComposite operator="in" in2="blur-2"/>
      <feComposite in="SourceGraphic"/>
    </filter>
    <filter id="Path_1149" x="11.648" y="33.45" width="42.697" height="42.272" filterUnits="userSpaceOnUse">
      <feOffset dy="3" input="SourceAlpha"/>
      <feGaussianBlur stdDeviation="3" result="blur-3"/>
      <feFlood flood-opacity="0.369"/>
      <feComposite operator="in" in2="blur-3"/>
      <feComposite in="SourceGraphic"/>
    </filter>
    <filter id="Path_1150" x="33.799" y="33.442" width="38.236" height="42.269" filterUnits="userSpaceOnUse">
      <feOffset dy="3" input="SourceAlpha"/>
      <feGaussianBlur stdDeviation="3" result="blur-4"/>
      <feFlood flood-opacity="0.369"/>
      <feComposite operator="in" in2="blur-4"/>
      <feComposite in="SourceGraphic"/>
    </filter>
    <filter id="Path_1148-2" x="1110.422" y="8.278" width="46.829" height="46.851" filterUnits="userSpaceOnUse">
      <feOffset dy="3" input="SourceAlpha"/>
      <feGaussianBlur stdDeviation="3" result="blur-5"/>
      <feFlood flood-opacity="0.369"/>
      <feComposite operator="in" in2="blur-5"/>
      <feComposite in="SourceGraphic"/>
    </filter>
    <filter id="Path_1149-2" x="1103.648" y="33.45" width="42.697" height="42.272" filterUnits="userSpaceOnUse">
      <feOffset dy="3" input="SourceAlpha"/>
      <feGaussianBlur stdDeviation="3" result="blur-6"/>
      <feFlood flood-opacity="0.369"/>
      <feComposite operator="in" in2="blur-6"/>
      <feComposite in="SourceGraphic"/>
    </filter>
    <filter id="Path_1150-2" x="1125.799" y="33.442" width="38.236" height="42.269" filterUnits="userSpaceOnUse">
      <feOffset dy="3" input="SourceAlpha"/>
      <feGaussianBlur stdDeviation="3" result="blur-7"/>
      <feFlood flood-opacity="0.369"/>
      <feComposite operator="in" in2="blur-7"/>
      <feComposite in="SourceGraphic"/>
    </filter>
  </defs>
  <g id="Group_43" data-name="Group 43" transform="translate(6556 -114)">
    <g transform="matrix(1, 0, 0, 1, -6556, 114)" filter="url(#Rectangle_412)">
      <rect id="Rectangle_412-2" data-name="Rectangle 412" width="1158" height="132" transform="translate(9 6)" fill="url(#linear-gradient)"/>
    </g>
    <g id="Icon_ionic-ios-ribbon" data-name="Icon ionic-ios-ribbon" transform="translate(-6539.853 126.028)">
      <g transform="matrix(1, 0, 0, 1, -16.15, -12.03)" filter="url(#Path_1148)">
        <path id="Path_1148-3" data-name="Path 1148" d="M23.11,31.1A14.417,14.417,0,0,0,37.645,16.554,14.636,14.636,0,0,0,23.353,2.25,14.417,14.417,0,0,0,8.817,16.8,14.636,14.636,0,0,0,23.11,31.1ZM22.7,8.574a8.118,8.118,0,1,1-7.56,7.571A8.119,8.119,0,0,1,22.7,8.574Z" transform="translate(18.61 12.03)" fill="url(#linear-gradient-2)"/>
      </g>
      <g transform="matrix(1, 0, 0, 1, -16.15, -12.03)" filter="url(#Path_1149)">
        <path id="Path_1149-3" data-name="Path 1149" d="M25.69,23.62a16.374,16.374,0,0,1-11.975-5.187.458.458,0,0,0-.728.077L4.621,33.156a.908.908,0,0,0,.795,1.358h8.84a.912.912,0,0,1,.784.441l4.3,7.163a.914.914,0,0,0,1.611-.088L25.7,31.588l3.454-7.6a.45.45,0,0,0-.5-.629A17.573,17.573,0,0,1,25.69,23.62Z" transform="translate(16.15 21.16)" fill="url(#linear-gradient-2)"/>
      </g>
      <g transform="matrix(1, 0, 0, 1, -16.15, -12.03)" filter="url(#Path_1150)">
        <path id="Path_1150-3" data-name="Path 1150" d="M29.625,18.425a16.4,16.4,0,0,1-5.794,3.984.419.419,0,0,0-.243.232L18.655,33.423a.446.446,0,0,0,0,.375L22.4,42.021a.914.914,0,0,0,1.611.088l4.3-7.163a.912.912,0,0,1,.784-.441h8.84a.912.912,0,0,0,.795-1.358L30.365,18.491A.482.482,0,0,0,29.625,18.425Z" transform="translate(24.19 21.16)" fill="url(#linear-gradient-2)"/>
      </g>
    </g>
    <g id="Icon_ionic-ios-ribbon-2" data-name="Icon ionic-ios-ribbon" transform="translate(-5447.853 126.028)">
      <g transform="matrix(1, 0, 0, 1, -1108.15, -12.03)" filter="url(#Path_1148-2)">
        <path id="Path_1148-4" data-name="Path 1148" d="M23.11,31.1A14.417,14.417,0,0,0,37.645,16.554,14.636,14.636,0,0,0,23.353,2.25,14.417,14.417,0,0,0,8.817,16.8,14.636,14.636,0,0,0,23.11,31.1ZM22.7,8.574a8.118,8.118,0,1,1-7.56,7.571A8.119,8.119,0,0,1,22.7,8.574Z" transform="translate(1110.61 12.03)" fill="url(#linear-gradient-2)"/>
      </g>
      <g transform="matrix(1, 0, 0, 1, -1108.15, -12.03)" filter="url(#Path_1149-2)">
        <path id="Path_1149-4" data-name="Path 1149" d="M25.69,23.62a16.374,16.374,0,0,1-11.975-5.187.458.458,0,0,0-.728.077L4.621,33.156a.908.908,0,0,0,.795,1.358h8.84a.912.912,0,0,1,.784.441l4.3,7.163a.914.914,0,0,0,1.611-.088L25.7,31.588l3.454-7.6a.45.45,0,0,0-.5-.629A17.573,17.573,0,0,1,25.69,23.62Z" transform="translate(1108.15 21.16)" fill="url(#linear-gradient-2)"/>
      </g>
      <g transform="matrix(1, 0, 0, 1, -1108.15, -12.03)" filter="url(#Path_1150-2)">
        <path id="Path_1150-4" data-name="Path 1150" d="M29.625,18.425a16.4,16.4,0,0,1-5.794,3.984.419.419,0,0,0-.243.232L18.655,33.423a.446.446,0,0,0,0,.375L22.4,42.021a.914.914,0,0,0,1.611.088l4.3-7.163a.912.912,0,0,1,.784-.441h8.84a.912.912,0,0,0,.795-1.358L30.365,18.491A.482.482,0,0,0,29.625,18.425Z" transform="translate(1116.19 21.16)" fill="url(#linear-gradient-2)"/>
      </g>
    </g>
  </g>
</svg>
