<svg height="512" viewBox="0 0 128 128" width="512" xmlns="http://www.w3.org/2000/svg"><g><rect fill="#f9cc4e" height="74.905" rx="8.069" width="115.387" x="6.306" y="26.547"/><path d="m121.69 34.62v9.46h-115.38v-9.46a8.066 8.066 0 0 1 8.07-8.07h99.24a8.066 8.066 0 0 1 8.07 8.07z" fill="#6d7a84"/><path d="m20.021 57.797h29.941v29.941h-29.941z" fill="#e2e8ed"/><circle cx="34.991" cy="69.833" fill="#f95050" r="5.255"/><path d="m27.285 87.738v-4.944a7.706 7.706 0 0 1 7.706-7.706 7.707 7.707 0 0 1 7.709 7.706v4.944z" fill="#f95050"/><path d="m99.375 26.547v31.25l-8.503-8.503-8.503 8.503v-31.25z" fill="#4ec4b5"/><g fill="#e2e8ed"><path d="m107.979 89.488h-42.374a1.75 1.75 0 0 1 0-3.5h42.374a1.75 1.75 0 0 1 0 3.5z"/><path d="m107.979 79.473h-42.374a1.75 1.75 0 0 1 0-3.5h42.374a1.75 1.75 0 0 1 0 3.5z"/><path d="m107.979 69.369h-42.374a1.75 1.75 0 0 1 0-3.5h42.374a1.75 1.75 0 1 1 0 3.5z"/></g></g></svg>