<svg id="Icon_Set" enable-background="new 0 0 256 256" height="512" viewBox="0 0 256 256" width="512" xmlns="http://www.w3.org/2000/svg"><path d="m38.625 220.274 29.979-29.979 23.72 23.72-29.979 29.979c-.909.909-2.44.053-2.141-1.198l2.678-11.199 3.244-13.568c.221-.925-.611-1.757-1.536-1.536l-24.767 5.922c-1.251.299-2.107-1.232-1.198-2.141z" fill="#ff4a73"/><path d="m195.615 243.994-29.979-29.979 23.72-23.72 29.979 29.979c.909.909.053 2.44-1.198 2.141l-11.199-2.678-13.568-3.244c-.925-.221-1.757.611-1.536 1.536l5.922 24.767c.299 1.251-1.232 2.107-2.141 1.198z" fill="#ff4a73"/><path d="m195.61 243.991-29.97-29.98 8.93-8.92 18.62 18.62 4.57 19.09c.29 1.25-1.24 2.1-2.15 1.19z" fill="#f973a3"/><path d="m218.14 222.411-11.2-2.67-2.81-.67-21.77-21.77 7-7.01 29.97 29.98c.91.91.06 2.44-1.19 2.14z" fill="#ea2a6a"/><path d="m76.1 197.791-20.95 20.96-15.33 3.66c-1.25.3-2.1-1.23-1.2-2.14l29.98-29.98z" fill="#f973a3"/><path d="m92.32 214.011-29.98 29.98c-.9.91-2.44.06-2.14-1.19l2.68-11.2.99-4.13 20.96-20.95z" fill="#ea2a6a"/><circle cx="128" cy="116.373" fill="#f9d335" r="104.764"/><circle cx="128" cy="116.373" fill="#f9d335" r="82.822"/><path d="m210.82 116.371c0 45.74-37.08 82.82-82.82 82.82-2.53 0-5.03-.11-7.5-.34 42.23-3.79 75.32-39.27 75.32-82.48s-33.09-78.69-75.32-82.48c2.47-.23 4.97-.34 7.5-.34 45.74 0 82.82 37.08 82.82 82.82z" fill="#f2c300"/><path d="m135.5 198.851c-2.47.23-4.97.34-7.5.34-45.74 0-82.82-37.08-82.82-82.82s37.08-82.82 82.82-82.82c2.53 0 5.03.11 7.5.34-42.23 3.79-75.32 39.27-75.32 82.48s33.09 78.69 75.32 82.48z" fill="#f9e27d"/><path d="m232.76 116.371c0 57.86-46.9 104.77-104.76 104.77-2.52 0-5.02-.09-7.5-.27 54.36-3.84 97.26-49.16 97.26-104.5s-42.9-100.65-97.26-104.49c2.48-.18 4.98-.27 7.5-.27 57.86 0 104.76 46.9 104.76 104.76z" fill="#f2c300"/><path d="m135.5 220.871c-2.48.18-4.98.27-7.5.27-57.86 0-104.76-46.91-104.76-104.77s46.9-104.76 104.76-104.76c2.52 0 5.02.09 7.5.27-54.36 3.84-97.26 49.15-97.26 104.49s42.9 100.66 97.26 104.5z" fill="#f9e27d"/><path d="m246.098 141.096h-236.196c-2.761 0-5-2.239-5-5v-39.446c0-2.761 2.239-5 5-5h236.197c2.761 0 5 2.239 5 5v39.446c-.001 2.762-2.239 5-5.001 5z" fill="#44c7b6"/><path d="m251.1 96.651v39.45c0 2.76-2.24 5-5 5h-15c2.76 0 5-2.24 5-5v-39.45c0-2.76-2.24-5-5-5h15c2.76 0 5 2.24 5 5z" fill="#3bb2a0"/><path d="m24.9 141.101h-15c-2.76 0-5-2.24-5-5v-39.45c0-2.76 2.24-5 5-5h15c-2.76 0-5 2.24-5 5v39.45c0 2.76 2.24 5 5 5z" fill="#4bdbc3"/><g fill="#5f266d"><path d="m246.1 87.651h-13.19c-12.63-46.08-54.88-80.04-104.91-80.04s-92.28 33.96-104.91 80.04h-13.19c-4.96 0-9 4.04-9 9v39.45c0 4.96 4.04 9 9 9h13.2c5.62 20.54 17.14 38.67 32.6 52.45l-19.9 19.89c-3.766 3.767-.206 10.105 4.95 8.86l20.45-4.89-4.89 20.46c-1.229 5.185 5.116 8.695 8.86 4.95l27.56-27.56c23.317 8.025 48.878 7.825 71.99-.51l28.07 28.07c3.72 3.756 10.088.231 8.86-4.95l-4.89-20.46 20.45 4.89c5.153 1.244 8.718-5.092 4.95-8.86l-20.83-20.82c14.95-13.66 26.07-31.44 31.57-51.52h13.2c4.96 0 9-4.04 9-9v-39.45c0-4.96-4.04-9-9-9zm-118.1-72.04c45.58 0 84.19 30.43 96.58 72.04h-14.65c-11.88-33.8-44.12-58.1-81.93-58.1s-70.05 24.3-81.93 58.1h-14.65c12.39-41.61 51-72.04 96.58-72.04zm73.4 72.04h-146.8c11.5-29.3 40.07-50.1 73.4-50.1s61.9 20.8 73.4 50.1zm-135.06 146.69 3.68-15.38c.92-3.85-2.573-7.282-6.36-6.36l-15.39 3.68 13.61-13.61c6.96 5.35 14.57 9.87 22.71 13.42zm143.34-18.06-15.38-3.68c-3.824-.913-7.275 2.531-6.36 6.36l3.68 15.38-18.85-18.85c8.05-3.65 15.58-8.26 22.45-13.67zm-81.68.86c-45.557 0-84.176-30.367-96.58-72.04h14.65c11.88 33.8 44.12 58.09 81.93 58.09s70.05-24.29 81.93-58.09h14.65c-12.476 41.964-51.478 72.04-96.58 72.04zm-73.4-72.04h146.8c-11.5 29.3-40.07 50.09-73.4 50.09s-61.9-20.79-73.4-50.09zm192.5-9c0 .55-.45 1-1 1-5.853 0-211.095 0-236.2 0-.55 0-1-.45-1-1v-39.45c0-.55.45-1 1-1h236.2c.55 0 1 .45 1 1z"/><path d="m89.96 54.521h-2.42c-.33 0-.66.09-.95.24l-4.58 2.45c-.81.44-1.22 1.37-1 2.26l.55 2.16c.308 1.232 1.721 1.898 2.89 1.27l.76-.41v15.02c0 1.1.9 2 2 2h2.75c1.1 0 2-.9 2-2v-20.99c0-1.1-.9-2-2-2z"/><path d="m104.31 54.171c-5.64 0-9.29 5.07-9.29 12.93.08 9.41 4.67 12.76 8.94 12.76 5.82 0 9.29-4.88 9.29-13.07 0-7.9-3.34-12.62-8.94-12.62zm-.19 19.5c-1.12 0-2.26-2.25-2.26-6.56 0-4.38 1.18-6.75 2.29-6.75 1.67 0 2.26 3.39 2.26 6.56 0 4.1-.9 6.75-2.29 6.75z"/><path d="m124.3 54.171c-5.65 0-9.3 5.07-9.3 12.93.09 9.41 4.68 12.76 8.94 12.76 5.82 0 9.3-4.88 9.3-13.07 0-7.9-3.35-12.62-8.94-12.62zm-.2 19.5c-1.12 0-2.26-2.25-2.26-6.56 0-4.38 1.18-6.75 2.29-6.75 1.67 0 2.27 3.39 2.27 6.56 0 4.1-.9 6.75-2.3 6.75z"/><path d="m165.73 52.431-24.61 24.92c-2.784 2.785 1.408 7.072 4.24 4.24l24.61-24.92c2.806-2.806-1.435-7.045-4.24-4.24z"/><path d="m166.45 68.211c-4.57 0-7.76 3.36-7.76 8.17 0 4.7 3.12 7.98 7.57 7.98 3.75 0 7.79-2.56 7.79-8.17 0-4.7-3.13-7.98-7.6-7.98zm-.09 10.56c-.89 0-1.53-1.03-1.53-2.46 0-.42.08-2.51 1.58-2.51 1.44 0 1.48 2.44 1.48 2.46 0 1.43-.66 2.51-1.53 2.51z"/><path d="m153.05 57.651c0-4.7-3.12-7.98-7.59-7.98-4.57 0-7.76 3.36-7.76 8.17 0 4.7 3.11 7.98 7.56 7.98 3.75 0 7.79-2.56 7.79-8.17zm-9.22.12c0-.42.08-2.51 1.58-2.51 1.44 0 1.48 2.44 1.48 2.46 0 1.43-.66 2.51-1.53 2.51-.89 0-1.53-1.03-1.53-2.46z"/><path d="m119.34 183.831c1.253.7 3.058.581 3.75.12 1.014-.406 13.844-13.428 24.71-24.29 4.041-4.041-2.07-10.18-6.13-6.12l-20.38 20.38-9.53-9.23c-4.115-3.971-10.137 2.219-6.03 6.23.385.372 13.092 12.783 13.61 12.91z"/><path d="m174.398 161.835c.591.308 1.223.455 1.847.455 1.443 0 2.836-.783 3.55-2.151.727-1.394 1.41-2.862 2.029-4.364.842-2.042-.132-4.38-2.174-5.222-2.042-.841-4.38.132-5.222 2.174-.528 1.281-1.108 2.53-1.725 3.712-1.023 1.958-.264 4.374 1.695 5.396z"/><path d="m143.509 179.512c.139 2.116 1.897 3.738 3.987 3.738.088 0 .177-.003.266-.009.473-.031 11.697-.866 22.073-10.146 1.646-1.473 1.788-4.001.315-5.648-1.472-1.646-4.001-1.787-5.648-.315-8.202 7.336-17.124 8.115-17.282 8.128-2.196.154-3.856 2.054-3.711 4.252z"/><path d="m39.476 103.705h-3.681c-.628 0-1.19.392-1.408.982-4.089 11.109-4.133 11.169-4.949 13.639-.773-2.451-.841-2.586-4.733-13.62-.211-.6-.778-1.001-1.415-1.001h-3.682c-.788 0-1.441.61-1.497 1.396l-1.559 22.355c-.06.868.63 1.604 1.497 1.604h2.753c.792 0 1.448-.616 1.497-1.407.633-10.154.603-9.645.661-10.696.128.382 3.586 10.565 3.718 10.952.207.608.778 1.018 1.42 1.018h2.19c.631 0 1.194-.395 1.41-.987.067-.184 4.147-11.396 4.212-11.579.104 1.972-.02-.24.641 11.285.045.794.703 1.414 1.498 1.414h2.82c.868 0 1.551-.734 1.497-1.593l-1.394-22.355c-.048-.791-.704-1.407-1.496-1.407z"/><path d="m58.542 103.339c-6.996 0-11.881 5.445-11.881 13.242 0 7.562 4.749 12.844 11.549 12.844 5.914 0 11.882-4.105 11.882-13.275-.001-7.543-4.75-12.811-11.55-12.811zm-.167 20.731c-3.869 0-5.631-3.917-5.631-7.555 0-3.607 1.483-7.82 5.665-7.82 3.869 0 5.631 3.934 5.631 7.588 0 3.876-1.751 7.787-5.665 7.787z"/><path d="m93.012 103.705h-2.72c-.829 0-1.5.671-1.5 1.5 0 10.109-.005 10.546.019 12.126-.644-1.072-.321-.549-8.164-12.929-.275-.434-.753-.697-1.267-.697h-3.151c-.829 0-1.5.671-1.5 1.5v22.355c0 .829.671 1.5 1.5 1.5h2.72c.829 0 1.5-.671 1.5-1.5 0-10.355.005-10.841-.019-12.658.753 1.262.656 1.092 8.392 13.454.274.438.754.704 1.271.704h2.919c.829 0 1.5-.671 1.5-1.5v-22.355c0-.829-.672-1.5-1.5-1.5z"/><path d="m114.193 123.639h-8.186v-5.06h7.19c.829 0 1.5-.671 1.5-1.5v-2.389c0-.829-.671-1.5-1.5-1.5h-7.19v-4.064h7.688c.829 0 1.5-.671 1.5-1.5v-2.421c0-.829-.671-1.5-1.5-1.5h-12.073c-.829 0-1.5.671-1.5 1.5v22.355c0 .829.671 1.5 1.5 1.5h12.571c.829 0 1.5-.671 1.5-1.5v-2.421c0-.829-.671-1.5-1.5-1.5z"/><path d="m138.57 103.705h-3.283c-.559 0-1.071.311-1.33.806-2.889 5.539-3.305 6.326-4.167 8.033-.579-1.176-.719-1.441-4.079-8.021-.256-.502-.772-.818-1.336-.818h-3.284c-1.138 0-1.863 1.222-1.315 2.222l6.88 12.532v9.102c0 .829.671 1.5 1.5 1.5h2.919c.829 0 1.5-.671 1.5-1.5v-9.113l7.291-12.485c.582-.999-.139-2.258-1.296-2.258z"/><path d="m168.473 115.373c1.378-1.241 2.168-2.923 2.168-4.779 0-2.142-.875-3.971-2.413-5.113-1.674-1.355-3.858-1.959-7.08-1.959-1.987 0-4.126.19-5.583.497-.694.146-1.191.758-1.191 1.468v21.991c0 .75.553 1.384 1.295 1.486.757.104 2.373.279 4.682.279 4.112 0 6.89-.789 8.772-2.513 1.557-1.51 2.346-3.378 2.346-5.554.002-2.725-1.331-4.629-2.996-5.803zm-8.213-6.602c.316-.018.668-.026 1.055-.026 3.409 0 3.409 1.451 3.409 2.149 0 1.657-1.727 2.248-3.343 2.248h-1.121zm.922 15.215c-.343 0-.65-.004-.922-.012v-5.645h.889c1.948 0 4.271.488 4.271 2.812-.001 1.888-1.426 2.845-4.238 2.845z"/><path d="m188.846 104.72c-.207-.607-.778-1.016-1.419-1.016h-3.482c-.643 0-1.213.409-1.42 1.018l-7.596 22.355c-.33.975.397 1.982 1.42 1.982h2.985c.647 0 1.221-.415 1.424-1.03l1.982-6.001h5.768l2.043 6.014c.207.608.778 1.018 1.42 1.018h3.084c1.027 0 1.752-1.012 1.419-1.984zm-4.502 12.052 1.27-3.753 1.277 3.753z"/><path d="m212.286 108.777c1.958 0 3.256.488 3.856.779.83.403 1.83-.035 2.093-.924l.697-2.355c.204-.688-.109-1.424-.745-1.756-.672-.35-2.601-1.165-6-1.165-7.757 0-13.175 5.445-13.175 13.241 0 7.782 4.924 12.811 12.545 12.811 2.483 0 7.984-.525 7.355-2.939l-.596-2.289c-.238-.916-1.255-1.385-2.106-.972-2.539 1.232-11.146 2.187-11.146-6.71-.001-4.907 2.632-7.721 7.222-7.721z"/><path d="m233.818 114.794 7.351-8.616c.829-.972.136-2.474-1.141-2.474h-3.582c-.451 0-.878.203-1.163.553l-6.027 7.403v-6.456c0-.829-.671-1.5-1.5-1.5h-2.885c-.829 0-1.5.671-1.5 1.5v22.355c0 .829.671 1.5 1.5 1.5h2.885c.829 0 1.5-.671 1.5-1.5v-7.965l.472-.545 6.269 9.346c.278.416.746.665 1.246.665h3.417c1.201 0 1.916-1.346 1.242-2.342z"/></g></svg>