<svg xmlns="http://www.w3.org/2000/svg" width="23.777" height="21.565" viewBox="0 0 23.777 21.565">
  <path id="Path_1562" data-name="Path 1562" d="M71.8,5251.69a2.616,2.616,0,0,1,.916-.54A2.809,2.809,0,0,1,73.8,5251a3.114,3.114,0,0,1,1.05.27,2.53,2.53,0,0,1,.836.64l2.664,3.11a2.168,2.168,0,0,1,.469,2.01L78,5259.98a.812.812,0,0,0,.006.46.871.871,0,0,0,.258.41l3.652,3.31a1.024,1.024,0,0,0,.444.23,1.113,1.113,0,0,0,.513.01l3.252-.74a2.843,2.843,0,0,1,1.164-.02,2.661,2.661,0,0,1,1.056.45l3.427,2.41a2.213,2.213,0,0,1,.243,3.52l-1.537,1.4a4.436,4.436,0,0,1-4.275.94,28.191,28.191,0,0,1-10.415-5.96,24.941,24.941,0,0,1-6.57-9.44,3.513,3.513,0,0,1,1.043-3.88l1.537-1.39Z" transform="translate(-69 -5250.996)" fill="#55acee" fill-rule="evenodd"/>
</svg>
