<svg xmlns="http://www.w3.org/2000/svg" xmlns:xlink="http://www.w3.org/1999/xlink" width="24" height="24" viewBox="0 0 24 24">
  <defs>
    <clipPath id="clip-path">
      <rect id="Rectangle_486" data-name="Rectangle 486" width="24" height="24" transform="translate(1242 5089)" fill="#fff"/>
    </clipPath>
  </defs>
  <g id="Group_28" data-name="Group 28" transform="translate(-1242 -5089)" clip-path="url(#clip-path)">
    <path id="Path_1584" data-name="Path 1584" d="M1253.5,5099a8.5,8.5,0,0,0,0,17h.5v3c4.86-2.34,8-7,8-11.5A8.506,8.506,0,0,0,1253.5,5099Zm1,14.5h-2v-2h2Zm0-3.5h-2c0-3.25,3-3,3-5a2,2,0,0,0-4,0h-2a4,4,0,0,1,8,0C1257.5,5107.5,1254.5,5107.75,1254.5,5110Z" transform="translate(1 -8)" fill="#fff"/>
  </g>
</svg>
