<svg xmlns="http://www.w3.org/2000/svg" width="24" height="21.005" viewBox="0 0 24 21.005">
  <path id="Path_1580" data-name="Path 1580" d="M857.127,5098.09a7.342,7.342,0,0,1,9.875-.36,7.357,7.357,0,0,1,9.865.36,7.056,7.056,0,0,1,.387,9.7l-8.674,8.57a2.265,2.265,0,0,1-3.037.11l-.123-.11-8.673-8.57a7.06,7.06,0,0,1,.38-9.7Zm1.58,1.56a4.882,4.882,0,0,0-.164,6.82l.164.17L867,5114.8l5.924-5.83-3.949-3.88-1.184,1.16a3.377,3.377,0,0,1-1.087.72,3.515,3.515,0,0,1-1.282.25,3.375,3.375,0,0,1-2.37-.97,3.257,3.257,0,0,1,0-4.66l2.348-2.31a5.094,5.094,0,0,0-3.3-1.08,5.04,5.04,0,0,0-3.221,1.29Zm9.479,3.11a1.11,1.11,0,0,1,1.579,0l4.738,4.66.791-.78a4.887,4.887,0,0,0,.084-6.91,5.079,5.079,0,0,0-7.022-.24l-.17.16-3.555,3.49a1.106,1.106,0,0,0-.325.72,1.068,1.068,0,0,0,.238.74l.087.1a1.122,1.122,0,0,0,1.482.08l.1-.08Z" transform="translate(-855 -5095.996)" fill="#fffcfc"/>
</svg>
