<svg xmlns="http://www.w3.org/2000/svg" width="23.32" height="16.48" viewBox="0 0 23.32 16.48">
  <path id="Path_1566" data-name="Path 1566" d="M1822.75,5275.19a3.031,3.031,0,0,1-.8.35,10.644,10.644,0,0,1-1.52.33c-.68.11-1.65.2-2.92.27s-2.77.1-4.51.1c-5.27,0-8.42-.31-9.43-.92q-1.8-1.05-2.16-6.18c-.03-.45-.05-.87-.07-1.27.02-.51.05-1.04.1-1.6s.15-1.24.29-2.05a7.7,7.7,0,0,1,.68-2.19,3.134,3.134,0,0,1,1.14-1.37q1.515-.9,9.45-.9c5.52,0,8.77.35,9.75,1.03a3.206,3.206,0,0,1,1,1.34,8.2,8.2,0,0,1,.59,2.05c.12.76.2,1.43.24,2s.06,1.14.08,1.71c-.02.5-.04,1.04-.08,1.59s-.11,1.25-.23,2.07a8.589,8.589,0,0,1-.58,2.22A3.126,3.126,0,0,1,1822.75,5275.19Zm-.86-13.24a3.06,3.06,0,0,0-.78-.28,20.87,20.87,0,0,0-2.71-.31c-1.43-.11-3.23-.17-5.4-.17-2.11,0-3.86.05-5.25.16a25.616,25.616,0,0,0-2.66.28,2.81,2.81,0,0,0-.79.25,3.4,3.4,0,0,0-1.02,1.97,17,17,0,0,0-.48,4.02,17.732,17.732,0,0,0,.5,4.16c.3,1.17.64,1.86,1.02,2.09a3.735,3.735,0,0,0,.77.24,22.045,22.045,0,0,0,2.66.29c1.39.11,3.14.16,5.25.16,2.17,0,3.97-.06,5.4-.17a23.009,23.009,0,0,0,2.71-.31,2.609,2.609,0,0,0,.78-.3,1.571,1.571,0,0,0,.47-.67,6.785,6.785,0,0,0,.41-1.29,15.763,15.763,0,0,0,.3-1.86c.07-.73.12-1.5.13-2.32a18.069,18.069,0,0,0-.4-3.99A3.626,3.626,0,0,0,1821.89,5261.95Zm-4.16,6.61-6.55,3.95a.666.666,0,0,1-.73.01.689.689,0,0,1-.36-.64V5264a.659.659,0,0,1,.36-.62.872.872,0,0,1,.37-.09,1.33,1.33,0,0,1,.19.02.394.394,0,0,1,.17.09l6.55,3.93a.7.7,0,0,1,.36.63A.72.72,0,0,1,1817.73,5268.56Zm-6.18-3.28v5.35l4.4-2.67Z" transform="translate(-1801.34 -5259.76)" fill="#55acee"/>
</svg>
