<svg xmlns="http://www.w3.org/2000/svg" width="18.72" height="18.72" viewBox="0 0 18.72 18.72">
  <g id="Group_55" data-name="Group 55" transform="translate(-1773 -6308)">
    <path id="Path_1564" data-name="Path 1564" d="M1782.36,5258c-2.54,0-2.86.01-3.86.06a6.709,6.709,0,0,0-2.27.43,4.779,4.779,0,0,0-2.74,2.74,6.718,6.718,0,0,0-.43,2.27c-.05,1-.06,1.32-.06,3.86s.01,2.86.06,3.86a6.72,6.72,0,0,0,.43,2.27,4.782,4.782,0,0,0,2.74,2.74,6.721,6.721,0,0,0,2.27.43c1,.05,1.32.06,3.86.06s2.86-.01,3.86-.06a6.721,6.721,0,0,0,2.27-.43,4.782,4.782,0,0,0,2.74-2.74,6.723,6.723,0,0,0,.43-2.27c.05-1,.06-1.32.06-3.86s-.01-2.86-.06-3.86a6.721,6.721,0,0,0-.43-2.27,4.779,4.779,0,0,0-2.74-2.74,6.709,6.709,0,0,0-2.27-.43C1785.22,5258.01,1784.9,5258,1782.36,5258Zm0,1.69c2.5,0,2.8.01,3.78.05a5.391,5.391,0,0,1,1.74.32,3.081,3.081,0,0,1,1.78,1.78,5.347,5.347,0,0,1,.32,1.74c.04.98.05,1.28.05,3.78s-.01,2.8-.05,3.78a5.343,5.343,0,0,1-.32,1.74,3.084,3.084,0,0,1-1.78,1.78,5.418,5.418,0,0,1-1.74.32c-.98.04-1.28.05-3.78.05s-2.8-.01-3.78-.05a5.356,5.356,0,0,1-1.74-.32,3.083,3.083,0,0,1-1.78-1.78,5.339,5.339,0,0,1-.32-1.74c-.04-.98-.05-1.28-.05-3.78s.01-2.8.05-3.78a5.343,5.343,0,0,1,.32-1.74,3.007,3.007,0,0,1,.7-1.08,2.966,2.966,0,0,1,1.08-.7,5.329,5.329,0,0,1,1.74-.32C1779.56,5259.7,1779.86,5259.69,1782.36,5259.69Z" transform="translate(0 1050)" fill="#55acee" fill-rule="evenodd"/>
    <path id="Path_1565" data-name="Path 1565" d="M1782.36,5262.32a5.053,5.053,0,1,0,3.56,1.48A5,5,0,0,0,1782.36,5262.32Zm0,8.28a3.244,3.244,0,1,1,2.29-.95A3.233,3.233,0,0,1,1782.36,5270.6Zm6.26-8.21a1.32,1.32,0,0,1-.08.44,1.126,1.126,0,0,1-.63.63,1.249,1.249,0,0,1-.88,0,1.206,1.206,0,0,1-.37-.25,1.19,1.19,0,0,1-.25-.38,1.153,1.153,0,0,1,1.06-1.59,1.143,1.143,0,0,1,1.15,1.15Z" transform="translate(0 1050)" fill="#55acee" fill-rule="evenodd"/>
  </g>
</svg>
